# AST/ASF file generated using VICON BodyLanguage
# -----------------------------------------------
:version 1.10
:name VICON
:units
  mass 1.0
  length 0.45
  angle deg
:documentation
   .ast/.asf automatically generated from VICON data using
   VICON BodyBuilder and BodyLanguage model FoxedUp or BRILLIANT.MOD
:root
   order TX TY TZ RX RY RZ
   axis XYZ
   position 0 0 0  
   orientation 0 0 0 
:bonedata
  begin
     id 1 
     name lhipjoint
     direction 0.645893 -0.654526 0.392961 
     length 2.38111 
     axis 0 0 0  XYZ
  end
  begin
     id 2 
     name lfemur
     direction 0.34202 -0.939693 0  
     length 6.6822  
     axis 0 0 20  XYZ
    dof rx ry rz
    limits (-160.0 20.0)
           (-70.0 70.0)
           (-60.0 70.0)
  end
  begin
     id 3 
     name ltibia
     direction 0.34202 -0.939693 0   
     length 6.93904   
     axis 0 0 20   XYZ
    dof rx
    limits (-10.0 170.0)
  end
  begin
     id 4 
     name lfoot
     direction 0.0694967 -0.190941 0.979138   
     length 2.13616   
     axis -90 7.62852e-016 20   XYZ
    dof rx rz
    limits (-45.0 90.0)
           (-70.0 20.0)
  end
  begin
     id 5 
     name ltoes
     direction 1.535e-011 -4.2202e-011 1   
     length 1.07536   
     axis -90 7.62852e-016 20   XYZ
    dof rx
    limits (-90.0 20.0)
  end
  begin
     id 6 
     name rhipjoint
     direction -0.700219 -0.612087 0.367481   
     length 2.54621  
     axis 0 0 0  XYZ 
  end
  begin
     id 7 
     name rfemur
     direction -0.34202 -0.939693 0   
     length 6.55353   
     axis 0 0 -20   XYZ
    dof rx ry rz
    limits (-160.0 20.0)
           (-70.0 70.0)
           (-70.0 60.0)
  end
  begin
     id 8 
     name rtibia
     direction -0.34202 -0.939693 0   
     length 6.8736   
     axis 0 0 -20   XYZ
    dof rx
    limits (-10.0 170.0)
 end
 begin
     id 9 
     name rfoot
     direction -0.0679995 -0.186827 0.980037   
     length 2.1218  
     axis -90 -7.62852e-016 -20   XYZ
    dof rx rz
    limits (-45.0 90.0)
           (-20.0 70.0)
  end
  begin
     id 10 
     name rtoes
     direction -1.53589e-011 -4.21772e-011 1   
     length 1.06864   
     axis -90 -7.62852e-016 -20   XYZ
    dof rx
    limits (-90.0 20.0)
  end
  begin
     id 11 
     name lowerback
     direction -0.0416607 0.996347 -0.0745409   
     length 2.12205   
     axis 0 0 0   XYZ
    dof rx ry rz
    limits (-20.0 45.0)
           (-30.0 30.0)
           (-30.0 30.0)
  end
  begin
     id 12 
     name upperback
     direction -0.000153993 0.999276 -0.0380568   
     length 2.12759   
     axis 0 0 0   XYZ
    dof rx ry rz
    limits (-20.0 45.0)
           (-30.0 30.0)
           (-30.0 30.0)
  end
  begin
     id 13 
     name thorax
     direction 0.0187671 0.999821 -0.00241421   
     length 2.13704   
     axis 0 0 0   XYZ
    dof rx ry rz
    limits (-20.0 45.0)
           (-30.0 30.0)
           (-30.0 30.0)
  end
  begin
     id 14 
     name lowerneck
     direction 0.0268157 0.964865 0.261374   
     length 1.65253   
     axis 0 0 0   XYZ
    dof rx ry rz
    limits (-20.0 45.0)
           (-30.0 30.0)
           (-30.0 30.0)
  end
  begin
     id 15 
     name upperneck
     direction 0.00263774 0.939908 -0.341418   
     length 1.72375   
     axis 0 0 0   XYZ
    dof rx ry rz
    limits (-20.0 45.0)
           (-30.0 30.0)
           (-30.0 30.0)
  end
  begin
     id 16
     name head
     direction -0.00526001 0.989001 -0.147818  
     length 1.74878  
     axis 0 0 0   XYZ
    dof rx ry rz
    limits (-20.0 45.0)
           (-30.0 30.0)
           (-30.0 30.0)
  end
  begin
     id 17 
     name lclavicle
     direction 0.881214 0.461162 -0.103884  
     length 3.25108  
     axis 0 0 0   XYZ
    dof ry rz
    limits (-20.0 10.0)
           (0.0 20.0)
  end
  begin
     id 18 
     name lhumerus
     direction 1 -4.4899e-011 3.38092e-027   
     length 4.87408   
     axis 180 -30 -90   XYZ
    dof rx ry rz
    limits (-60.0 90.0)
           (-90.0 90.0)
           (-90.0 90.0)
  end
  begin
     id 19
     name lradius
     direction 1 -4.48931e-011 9.96288e-027   
     length 2.76729   
     axis 180 -30 -90   XYZ
    dof rx
    limits (-10.0 170.0)
  end
  begin
     id 20
     name lwrist
     direction 1 -4.4896e-011 1.50617e-026   
     length 1.38364   
     axis -9.31234e-015 90 90   XYZ
    dof ry
    limits (-180.0 0.0)
 end
  begin
     id 21 
     name lhand
     direction 1 -4.49038e-011 3.01286e-026   
     length 0.98922   
     axis -1.92217e-014 90 90   XYZ
    dof rx rz
    limits (-90.0 90.0)
           (-45.0 45.0)
  end
  begin
     id 22 
     name lfingers
     direction 1 -4.49051e-011 6.02588e-026   
     length 0.797535   
     axis -3.84436e-014 90 90   XYZ
    dof rx
    limits (0.0 90.0)
  end
  begin
     id 23
     name lthumb
     direction 0.707107 -6.34901e-011 0.707107   
     length 1.14511   
     axis -90 45 2.19363e-014   XYZ
    dof rx rz
    limits (-45.0 45.0)
           (-45.0 45.0)
  end
  begin
     id 24 
     name rclavicle
     direction -0.893894 0.441652 -0.0767889   
     length 3.29361  
     axis 0 0 0   XYZ 
    dof ry rz
    limits (-10.0 20.0)
           (-20.0 0.0)
  end
  begin
     id 25 
     name rhumerus
     direction -1 -4.48945e-011 8.0491e-028  
     length 4.71404   
     axis 180 30 90   XYZ
    dof rx ry rz
    limits (-90.0 60.0)
           (-90.0 90.0)
           (-90.0 90.0)
  end
  begin
     id 26 
     name rradius
     direction -1 -4.48986e-011 9.27795e-027   
     length 2.83468   
     axis 180 30 90   XYZ
    dof rx
    limits (-10.0 170.0)
  end
  begin
     id 27 
     name rwrist
     direction -1 -4.49029e-011 1.5064e-026   
     length 1.41734   
     axis -9.31234e-015 -90 -90   XYZ
    dof ry
    limits (-180.0 0.0)
  end
  begin
     id 28
     name rhand
     direction -1 -4.48857e-011 3.01165e-026   
     length 0.868195   
     axis -1.92217e-014 -90 -90   XYZ
    dof rx rz
    limits (-90.0 90.0)
           (-45.0 45.0)
  end
  begin
     id 29
     name rfingers
     direction -1 -4.49048e-011 6.02585e-026   
     length 0.699961   
     axis -3.84436e-014 -90 -90   XYZ
    dof rx
    limits (0.0 90.0)
  end
  begin
     id 30
     name rthumb
     direction -0.707107 -6.34854e-011 0.707107   
     length 1.00501   
     axis -90 -45 -2.19363e-014   XYZ
    dof rx rz
    limits (-45.0 45.0)
           (-45.0 45.0)
  end
:hierarchy
  begin
    root lhipjoint rhipjoint lowerback
    lhipjoint lfemur
    lfemur ltibia
    ltibia lfoot
    lfoot ltoes
    rhipjoint rfemur
    rfemur rtibia
    rtibia rfoot
    rfoot rtoes
    lowerback upperback
    upperback thorax
    thorax lowerneck lclavicle rclavicle
    lowerneck upperneck
    upperneck head
    lclavicle lhumerus
    lhumerus lradius
    lradius lwrist
    lwrist lhand lthumb
    lhand lfingers
    rclavicle rhumerus
    rhumerus rradius
    rradius rwrist
    rwrist rhand rthumb
    rhand rfingers
  end

#!OML:ASF H:\ManfredObstacles\Project 1\Capture day 2\Session 1\male.ASF
:FULLY-SPECIFIED
:DEGREES
96
root 2.50229 11.8117 22.208 -167.492 -4.31369 -183.614
lowerback 36.1899 3.29433 -2.34857
upperback 14.5773 -1.46156 1.85268
thorax -2.04107 -2.80598 3.71274
lowerneck -32.0111 1.70485 1.99138
upperneck 27.1912 1.62663 -1.25166
head 14.7742 0.636176 -0.521233
rclavicle -2.64384e-014 2.0276e-014
rhumerus 3.04359 1.31377 -82.9515
rradius 27.6911
rwrist 32.883
rhand -11.4084 -5.4238
rfingers 7.12502
rthumb 14.627 -34.888
lclavicle -2.64384e-014 2.0276e-014
lhumerus 7.01564 -7.21054 78.8464
lradius 32.1025
lwrist -40.4769
lhand -9.62985 5.33294
lfingers 7.12502
lthumb 16.3401 34.6646
rfemur -75.3789 0.690193 22.7115
rtibia 93.7157
rfoot -24.8995 -23.7138
rtoes -9.9561
lfemur -78.9696 -2.01108 -23.1802
ltibia 99.4136
lfoot -2.65184 23.647
ltoes -8.69042
97
root 2.49051 11.6996 22.1504 -167.341 -4.15834 -183.526
lowerback 36.4334 3.35283 -2.3005
upperback 14.6507 -1.44265 1.84221
thorax -2.0435 -2.81634 3.67287
lowerneck -32.0308 1.74663 2.03393
upperneck 26.9527 1.68765 -1.27365
head 14.674 0.668344 -0.522108
rclavicle -6.55989e-015 1.44119e-014
rhumerus 3.57915 1.93863 -82.8808
rradius 27.8658
rwrist 32.6669
rhand -11.518 -5.38781
rfingers 7.12502
rthumb 14.5214 -34.8596
lclavicle -6.55989e-015 1.44119e-014
lhumerus 7.31633 -7.13319 78.7901
lradius 31.9521
lwrist -40.5941
lhand -9.7733 5.31018
lfingers 7.12502
lthumb 16.2019 34.6531
rfemur -76.1635 0.728641 22.8747
rtibia 95.0914
rfoot -25.6817 -23.7118
rtoes -10.0975
lfemur -79.4619 -2.05968 -23.0413
ltibia 100.139
lfoot -2.99792 23.5141
ltoes -8.52336
98
root 2.47802 11.5848 22.0931 -167.181 -3.994 -183.425
lowerback 36.6596 3.41653 -2.2561
upperback 14.7059 -1.4079 1.839
thorax -2.06024 -2.8156 3.63774
lowerneck -31.9984 1.77451 2.04167
upperneck 26.6983 1.73414 -1.26307
head 14.556 0.695508 -0.507159
rclavicle -1.25234e-014 2.17669e-014
rhumerus 4.06055 2.56868 -82.7632
rradius 28.0539
rwrist 32.463
rhand -11.6578 -5.37362
rfingers 7.12502
rthumb 14.3868 -34.855
lclavicle -1.25234e-014 2.17669e-014
lhumerus 7.57398 -7.03286 78.79
lradius 31.8239
lwrist -40.7057
lhand -9.92189 5.28265
lfingers 7.12502
lthumb 16.0589 34.6372
rfemur -76.9691 0.79043 23.0455
rtibia 96.4822
rfoot -26.4477 -23.7224
rtoes -10.256
lfemur -79.9378 -2.07473 -22.8973
ltibia 101.059
lfoot -3.59407 23.7511
ltoes -8.46736
99
root 2.46455 11.467 22.0361 -167.014 -3.81958 -183.314
lowerback 36.8699 3.48748 -2.20624
upperback 14.7503 -1.35464 1.83685
thorax -2.08417 -2.80294 3.5948
lowerneck -31.9805 1.79562 2.05086
upperneck 26.4779 1.76322 -1.23942
head 14.456 0.71681 -0.491126
rclavicle 4.77083e-015 -2.08724e-015
rhumerus 4.48036 3.14014 -82.6347
rradius 28.2676
rwrist 32.343
rhand -11.8246 -5.35427
rfingers 7.12502
rthumb 14.226 -34.8471
lclavicle 4.77083e-015 -2.08724e-015
lhumerus 7.79208 -6.9234 78.8289
lradius 31.7398
lwrist -40.8331
lhand -10.0864 5.21564
lfingers 7.12502
lthumb 15.9005 34.5829
rfemur -77.7992 0.874929 23.2217
rtibia 97.8894
rfoot -27.1913 -23.7451
rtoes -10.4364
lfemur -80.4178 -2.04776 -22.753
ltibia 102.17
lfoot -4.38073 24.3215
ltoes -8.52484
100
root 2.45002 11.3462 21.9796 -166.842 -3.63363 -183.183
lowerback 37.0776 3.56371 -2.15391
upperback 14.7787 -1.28636 1.84301
thorax -2.12499 -2.7804 3.55487
lowerneck -32.0012 1.81344 2.06345
upperneck 26.2736 1.78943 -1.22864
head 14.3711 0.734999 -0.481619
rclavicle -5.56597e-015 2.48481e-015
rhumerus 4.83022 3.6952 -82.4842
rradius 28.5163
rwrist 32.2167
rhand -12.0157 -5.33603
rfingers 7.12502
rthumb 14.0419 -34.8417
lclavicle -5.56597e-015 2.48481e-015
lhumerus 7.95524 -6.80889 78.8994
lradius 31.7148
lwrist -40.9443
lhand -10.2635 5.13072
lfingers 7.12502
lthumb 15.7299 34.5115
rfemur -78.6503 0.987106 23.4093
rtibia 99.3146
rfoot -27.9191 -23.78
rtoes -10.6287
lfemur -80.9208 -1.98216 -22.5975
ltibia 103.443
lfoot -5.26844 25.1136
ltoes -8.8313
101
root 2.43462 11.2218 21.9236 -166.661 -3.43369 -183.022
lowerback 37.3813 3.64231 -2.08288
upperback 14.6914 -1.20323 1.85172
thorax -2.17807 -2.74795 3.50324
lowerneck -32.0367 1.834 2.09524
upperneck 26.077 1.81211 -1.22674
head 14.2931 0.752127 -0.479737
rclavicle -1.0138e-014 -2.98177e-016
rhumerus 5.11532 4.20404 -82.3441
rradius 28.8038
rwrist 32.1161
rhand -12.2508 -5.31174
rfingers 7.12502
rthumb 13.8153 -34.833
lclavicle -1.0138e-014 -2.98177e-016
lhumerus 8.07418 -6.69916 78.982
lradius 31.7457
lwrist -41.0518
lhand -10.4557 5.03761
lfingers 7.12502
lthumb 15.5447 34.4328
rfemur -79.5318 1.14242 23.6206
rtibia 100.754
rfoot -28.6255 -23.8388
rtoes -10.8313
lfemur -81.4778 -1.87387 -22.4103
ltibia 104.827
lfoot -6.14571 25.9999
ltoes -9.42084
102
root 2.41841 11.0932 21.8681 -166.473 -3.22727 -182.831
lowerback 37.5881 3.7213 -2.0102
upperback 14.6903 -1.11084 1.8729
thorax -2.25192 -2.70851 3.46175
lowerneck -32.1055 1.85751 2.13901
upperneck 25.8827 1.84479 -1.2604
head 14.2236 0.769148 -0.492188
rclavicle 2.78299e-015 -5.51627e-015
rhumerus 5.36428 4.7431 -82.1745
rradius 29.1246
rwrist 31.9
rhand -12.4912 -5.29652
rfingers 7.12502
rthumb 13.5836 -34.8334
lclavicle 2.78299e-015 -5.51627e-015
lhumerus 8.13373 -6.59552 79.0781
lradius 31.8466
lwrist -41.1258
lhand -10.6502 4.94804
lfingers 7.12502
lthumb 15.3575 34.3577
rfemur -80.4433 1.33358 23.8571
rtibia 102.211
rfoot -29.3155 -23.921
rtoes -11.0286
lfemur -82.1153 -1.73021 -22.1989
ltibia 106.276
lfoot -6.89824 26.8074
ltoes -10.1555
